<svg width="100" height="100" viewBox="0 0 100 100" fill="none" xmlns="http://www.w3.org/2000/svg">
<g clip-path="url(#clip0_583_21)">
<path d="M50 6C63.8071 6 75 17.1929 75 31C75 44.8071 63.8071 56 50 56C36.1929 56 25 44.8071 25 31C25 17.1929 36.1929 6 50 6ZM50 14C40.6112 14 33 21.6112 33 31C33 40.3888 40.6112 48 50 48C59.3888 48 67 40.3888 67 31C67 21.6112 59.3888 14 50 14Z" fill="black"/>
<rect x="25" y="30" width="8" height="57" fill="black"/>
<rect x="44" y="53.3296" width="8" height="39.9693" transform="rotate(-32.7648 44 53.3296)" fill="black"/>
<circle cx="3" cy="3" r="3" transform="matrix(1 0 0 -1 56 33)" fill="black"/>
<path d="M60 36C62.7614 36 65 38.2386 65 41C65 43.7614 62.7614 46 60 46C57.2386 46 55 43.7614 55 41C55 38.2386 57.2386 36 60 36ZM60.833 40.167C60.3729 40.1672 60 40.5399 60 41C60 41.4601 60.3729 41.8328 60.833 41.833C61.2932 41.833 61.667 41.4602 61.667 41C61.667 40.5398 61.2932 40.167 60.833 40.167ZM62.917 37.667C62.2266 37.667 61.667 38.2266 61.667 38.917C61.6672 39.6072 62.2267 40.167 62.917 40.167C63.6071 40.1668 64.1668 39.6071 64.167 38.917C64.167 38.2267 63.6072 37.6672 62.917 37.667Z" fill="#D9D9D9"/>
<mask id="mask0_583_21" style="mask-type:alpha" maskUnits="userSpaceOnUse" x="42" y="28" width="6" height="6">
<circle cx="3" cy="3" r="3" transform="matrix(1 0 0 -1 42 34)" fill="black"/>
</mask>
<g mask="url(#mask0_583_21)">
<circle cx="3" cy="3" r="3" transform="matrix(1 0 0 -1 42 33)" fill="black"/>
</g>
</g>
<defs>
<clipPath id="clip0_583_21">
<rect width="100" height="100" fill="white"/>
</clipPath>
</defs>
</svg>
